<svg id="Capa_1" data-name="Capa 1" xmlns="http://www.w3.org/2000/svg" viewBox="0 0 417 106"><defs><style>.cls-1{fill:#0d3934;}.cls-2{fill:#be3455;}</style></defs><path class="cls-1" d="M39.4,72.13a8,8,0,0,0-.77,3.42,8.13,8.13,0,1,0,15.68-3C53.52,69.63,46.81,58,46.81,58S40.38,69,39.4,72.13Z"/><path class="cls-1" d="M27,60.9a8,8,0,0,0-2.95,1.88A8.12,8.12,0,1,0,35.53,74.27a8.22,8.22,0,0,0,1.71-2.52c1.52-2.63,5-15.62,5-15.62S29.9,59.4,27,60.9Z"/><path class="cls-1" d="M26.18,44.2a8,8,0,0,0-3.42-.77,8.13,8.13,0,1,0,3,15.68c2.94-.79,14.59-7.5,14.59-7.5S29.29,45.18,26.18,44.2Z"/><path class="cls-1" d="M37.41,31.8a7.9,7.9,0,0,0-1.88-2.95,8.12,8.12,0,1,0-9,13.19c2.64,1.52,15.62,5,15.62,5S38.91,34.7,37.41,31.8Z"/><path class="cls-1" d="M54.12,31a8.12,8.12,0,1,0-15.49-3.42,8,8,0,0,0,.58,3c.79,2.94,7.5,14.59,7.5,14.59S53.13,34.09,54.12,31Z"/><path class="cls-2" d="M66.51,42.21a8,8,0,0,0,3-1.88A8.12,8.12,0,0,0,58,28.85a8,8,0,0,0-1.7,2.51C54.76,34,51.26,47,51.26,47S63.61,43.71,66.51,42.21Z"/><path class="cls-1" d="M67.33,58.92a8.12,8.12,0,1,0,3.42-15.49,8,8,0,0,0-3,.58c-2.94.79-14.59,7.49-14.59,7.49S64.22,57.93,67.33,58.92Z"/><path class="cls-1" d="M56.1,71.31a8.12,8.12,0,1,0,13.37-8.53A7.9,7.9,0,0,0,67,61.08c-2.63-1.52-15.61-5-15.61-5S54.6,68.41,56.1,71.31Z"/><circle class="cls-1" cx="46.76" cy="51.45" r="4.51"/><path class="cls-2" d="M120.35,44.82l-3.25.91a8.41,8.41,0,0,0-1.35-2.48,6.15,6.15,0,0,0-2.28-1.77,8.11,8.11,0,0,0-3.47-.66,8.36,8.36,0,0,0-5.09,1.47,4.55,4.55,0,0,0-2,3.8,4.08,4.08,0,0,0,1.37,3.19,9.73,9.73,0,0,0,4.2,1.94l4.62,1.14a11.43,11.43,0,0,1,5.75,3,7.11,7.11,0,0,1,1.92,5.09A7.65,7.65,0,0,1,119.35,65a9.56,9.56,0,0,1-4,3.16,14.36,14.36,0,0,1-5.91,1.14,12.58,12.58,0,0,1-7.38-2,9.07,9.07,0,0,1-3.72-5.84l3.4-.83a6.86,6.86,0,0,0,2.58,4.12,8.47,8.47,0,0,0,5.06,1.39A9.21,9.21,0,0,0,115,64.54a4.8,4.8,0,0,0,2.1-4,4.28,4.28,0,0,0-1.23-3.11,7.6,7.6,0,0,0-3.74-1.86l-5-1.2a11.44,11.44,0,0,1-5.89-3,7.29,7.29,0,0,1-1.91-5.13,7.41,7.41,0,0,1,1.38-4.44,9.16,9.16,0,0,1,3.78-3A13.08,13.08,0,0,1,110,37.7a10.87,10.87,0,0,1,6.72,1.9A10.57,10.57,0,0,1,120.35,44.82Z"/><path class="cls-2" d="M140.57,38.12V41.2H126V38.12Zm-10-7.32h3.56V60.69a5.85,5.85,0,0,0,.65,3,3.64,3.64,0,0,0,1.71,1.53,5.72,5.72,0,0,0,2.25.45,6.79,6.79,0,0,0,1.19-.09c.34-.06.63-.12.88-.19l.75,3.2a7.59,7.59,0,0,1-1.27.37,8.84,8.84,0,0,1-1.87.17,8.63,8.63,0,0,1-3.75-.85,7.09,7.09,0,0,1-4.1-6.75Z"/><path class="cls-2" d="M157.14,69.36a11.71,11.71,0,0,1-5.06-1.08,8.75,8.75,0,0,1-3.63-3.15,8.84,8.84,0,0,1-1.36-5,7.84,7.84,0,0,1,.86-3.82,7,7,0,0,1,2.42-2.54,13.15,13.15,0,0,1,3.72-1.57,33.59,33.59,0,0,1,4.74-.9l4.34-.55a8.13,8.13,0,0,0,2.72-.76,1.76,1.76,0,0,0,.93-1.67V47.6A6.53,6.53,0,0,0,165,42.68a7.37,7.37,0,0,0-5.34-1.8,9.27,9.27,0,0,0-5.38,1.45,8.1,8.1,0,0,0-2.91,3.42L148,44.54a10,10,0,0,1,2.86-4,11.47,11.47,0,0,1,4.1-2.16,16,16,0,0,1,4.59-.67,15.27,15.27,0,0,1,3.65.46,10.39,10.39,0,0,1,3.53,1.58,8.24,8.24,0,0,1,2.65,3.12,11.22,11.22,0,0,1,1,5.06V68.66h-3.54V63.83h-.22a9.49,9.49,0,0,1-1.89,2.63,9.78,9.78,0,0,1-3.14,2.08A11,11,0,0,1,157.14,69.36Zm.47-3.24a9.26,9.26,0,0,0,4.89-1.25,8.69,8.69,0,0,0,3.2-3.34A9.44,9.44,0,0,0,166.82,57V52.54a3.48,3.48,0,0,1-1.32.67,17.42,17.42,0,0,1-2.13.53q-1.2.23-2.4.39l-2.14.27a20.27,20.27,0,0,0-4.42,1,6.38,6.38,0,0,0-2.8,1.86,4.61,4.61,0,0,0-1,3,5.13,5.13,0,0,0,2,4.31A8,8,0,0,0,157.61,66.12Z"/><path class="cls-2" d="M179.77,68.66V38.12h3.44v4.69h.26a7.67,7.67,0,0,1,3.19-3.73,9.53,9.53,0,0,1,5.16-1.42l1,0,.9,0v3.6l-.84-.12a10.26,10.26,0,0,0-1.29-.08,8.8,8.8,0,0,0-4.25,1,7.53,7.53,0,0,0-4,6.82V68.66Z"/><path class="cls-2" d="M213.67,38.12V41.2H199.1V38.12Zm-10-7.32h3.56V60.69a5.74,5.74,0,0,0,.66,3,3.55,3.55,0,0,0,1.71,1.53,5.64,5.64,0,0,0,2.24.45,6.83,6.83,0,0,0,1.2-.09c.33-.06.62-.12.87-.19l.76,3.2a8.21,8.21,0,0,1-1.27.37,9,9,0,0,1-1.87.17,8.63,8.63,0,0,1-3.75-.85,7.08,7.08,0,0,1-4.11-6.75Z"/><path class="cls-2" d="M241.12,57V38.12h3.54V68.66h-3.54V63.59h-.28a9.37,9.37,0,0,1-3.4,3.91,10,10,0,0,1-5.69,1.56,10.4,10.4,0,0,1-5.19-1.28A9,9,0,0,1,223,64a13.15,13.15,0,0,1-1.29-6.11V38.12h3.54V57.69a7.9,7.9,0,0,0,2.11,5.75,7.17,7.17,0,0,0,5.41,2.18,8.52,8.52,0,0,0,4-1,8.3,8.3,0,0,0,3.15-2.92A8.57,8.57,0,0,0,241.12,57Z"/><path class="cls-2" d="M254,80.12v-42h3.45v5.82h.41a15.44,15.44,0,0,1,1.75-2.81,9.36,9.36,0,0,1,3-2.44,9.69,9.69,0,0,1,4.64-1,11.25,11.25,0,0,1,6.61,2,13,13,0,0,1,4.42,5.53,20.19,20.19,0,0,1,1.58,8.26,20.3,20.3,0,0,1-1.58,8.29,13,13,0,0,1-4.42,5.55,11.12,11.12,0,0,1-6.57,2,9.75,9.75,0,0,1-4.62-1,9.49,9.49,0,0,1-3-2.46A13.79,13.79,0,0,1,257.86,63h-.32V80.12Zm3.5-26.71A18,18,0,0,0,258.61,60a10.13,10.13,0,0,0,3.18,4.48A8.68,8.68,0,0,0,272,64.38a10.46,10.46,0,0,0,3.2-4.55,17.65,17.65,0,0,0,1.11-6.42,17.39,17.39,0,0,0-1.09-6.34A10.15,10.15,0,0,0,272,42.58a8.86,8.86,0,0,0-10.24-.06,9.88,9.88,0,0,0-3.17,4.42A17.94,17.94,0,0,0,257.5,53.41Z"/><path class="cls-2" d="M315.91,38.12V41.2h-15V38.12ZM305.59,68.66v-35a7.16,7.16,0,0,1,1.15-4.15,7.3,7.3,0,0,1,3-2.57,9.09,9.09,0,0,1,3.92-.87,10,10,0,0,1,2.31.22,12.67,12.67,0,0,1,1.46.45l-1,3.1-1-.27a5.46,5.46,0,0,0-1.46-.16,4.75,4.75,0,0,0-3.56,1.29,5.11,5.11,0,0,0-1.25,3.7l0,34.28Z"/><path class="cls-2" d="M323,68.66V38.12h3.44v4.69h.26a7.72,7.72,0,0,1,3.19-3.73A9.53,9.53,0,0,1,335,37.66l1,0,.89,0v3.6l-.83-.12a10.38,10.38,0,0,0-1.29-.08,8.8,8.8,0,0,0-4.25,1,7.56,7.56,0,0,0-4,6.82V68.66Z"/><path class="cls-2" d="M354.35,69.3a13.42,13.42,0,0,1-7.39-2,13.22,13.22,0,0,1-4.83-5.55,18.74,18.74,0,0,1-1.7-8.18,19,19,0,0,1,1.7-8.2,13.72,13.72,0,0,1,4.72-5.63,12.13,12.13,0,0,1,7-2,13.09,13.09,0,0,1,4.79.9,12,12,0,0,1,4.15,2.77A13.45,13.45,0,0,1,365.67,46a18.59,18.59,0,0,1,1.07,6.65v1.75H342.88V51.32h20.24a11.63,11.63,0,0,0-1.18-5.3,9.43,9.43,0,0,0-3.28-3.73,9.22,9.22,0,0,0-10,.18,10.55,10.55,0,0,0-3.45,4.1A12.8,12.8,0,0,0,344,52.14V54a14.81,14.81,0,0,0,1.27,6.35,9.7,9.7,0,0,0,3.59,4.21,10.94,10.94,0,0,0,9.31.81,8.1,8.1,0,0,0,4.47-4.33L366,62.14a10,10,0,0,1-2.28,3.56,11.66,11.66,0,0,1-3.94,2.62A14.05,14.05,0,0,1,354.35,69.3Z"/><path class="cls-2" d="M386.87,69.3a13.45,13.45,0,0,1-7.4-2,13.13,13.13,0,0,1-4.82-5.55,18.6,18.6,0,0,1-1.7-8.18,18.81,18.81,0,0,1,1.7-8.2,13.62,13.62,0,0,1,4.71-5.63,12.13,12.13,0,0,1,7-2,13,13,0,0,1,4.79.9,12,12,0,0,1,4.15,2.77A13.16,13.16,0,0,1,398.18,46a18.58,18.58,0,0,1,1.08,6.65v1.75H375.39V51.32h20.25a11.63,11.63,0,0,0-1.18-5.3,9.46,9.46,0,0,0-3.29-3.73,9.22,9.22,0,0,0-9.95.18,10.63,10.63,0,0,0-3.45,4.1,12.65,12.65,0,0,0-1.26,5.57V54a15,15,0,0,0,1.26,6.35,9.77,9.77,0,0,0,3.59,4.21,11,11,0,0,0,9.32.81,8.1,8.1,0,0,0,2.76-1.82,7.92,7.92,0,0,0,1.7-2.51l3.36,1.09a9.93,9.93,0,0,1-2.27,3.56,11.76,11.76,0,0,1-3.94,2.62A14.09,14.09,0,0,1,386.87,69.3Z"/></svg>